#Comment line ignore any data following # character 
#Hierarchical Translation and Rotation (.htr) file 
[Header]	
#Header keywords are followed by a single value 
FileType HTR		#Single word string
DataType HTRS		#Translation followed by rotation and scale data
FileVersion 1		#integer
NumSegments 25		#integer
NumFrames 4		#integer
DataFrameRate 30		#integer, data frame rate in this file
EulerRotationOrder ZYX
CalibrationUnits mm
RotationUnits Degrees
GlobalAxisofGravity Y
BoneLengthAxis Y
ScaleFactor 1.00
[SegmentNames&Hierarchy]
#CHILD	PARENT
BN_Tick_Root GLOBAL
BN_Torso BN_Tick_Root
BN_L_Leg_Front01 BN_Torso
BN_L_Leg_Rear01 BN_Torso
BN_MetalTop BN_Torso
BN_Neck BN_Torso
BN_R_Leg_Front01 BN_Torso
BN_R_Leg_Rear01 BN_Torso
BN_Sack BN_Torso
BN_L_Leg_Front02 BN_L_Leg_Front01
BN_L_Leg_Front03 BN_L_Leg_Front02
BN_L_Leg_Rear02 BN_L_Leg_Rear01
BN_L_Leg_Rear03 BN_L_Leg_Rear02
BN_Head BN_Neck
BN_Needle BN_Head
BN_R_Leg_Front02 BN_R_Leg_Front01
BN_R_Leg_Front03 BN_R_Leg_Front02
BN_R_Leg_Rear02 BN_R_Leg_Rear01
BN_R_Leg_Rear03 BN_R_Leg_Rear02
BN_SackDef01 BN_Sack
BN_SackDef02 BN_Sack
BN_SackDef03 BN_Sack
BN_SackDef04 BN_Sack
BN_SackDef05 BN_Sack
BN_SackDef06 BN_Sack
[BasePosition]
#SegmentName Tx, Ty, Tz, Rx, Ry, Rz, BoneLength
BN_Tick_Root 0.000000 0.000000 0.000000 -90.000000 0.000000 0.000000 10.000000 
BN_Torso 0.000000 0.000000 0.000000 0.000000 0.000000 0.000000 10.000000 
BN_L_Leg_Front01 0.000000 0.000000 0.000000 0.000000 0.000000 0.000000 10.000000 
BN_L_Leg_Rear01 0.000000 0.000000 0.000000 0.000000 0.000000 0.000000 10.000000 
BN_MetalTop 0.000000 0.000000 0.000000 0.000000 0.000000 0.000000 10.000000 
BN_Neck 0.000000 0.000000 0.000000 0.000000 0.000000 0.000000 10.000000 
BN_R_Leg_Front01 0.000000 0.000000 0.000000 0.000000 0.000000 0.000000 10.000000 
BN_R_Leg_Rear01 0.000000 0.000000 0.000000 0.000000 0.000000 0.000000 10.000000 
BN_Sack 0.000000 0.000000 0.000000 0.000000 0.000000 0.000000 10.000000 
BN_L_Leg_Front02 0.000000 0.000000 0.000000 0.000000 0.000000 0.000000 10.000000 
BN_L_Leg_Front03 0.000000 0.000000 0.000000 0.000000 0.000000 0.000000 10.000000 
BN_L_Leg_Rear02 0.000000 0.000000 0.000000 0.000000 0.000000 0.000000 10.000000 
BN_L_Leg_Rear03 0.000000 0.000000 0.000000 0.000000 0.000000 0.000000 10.000000 
BN_Head 0.000000 0.000000 0.000000 0.000000 0.000000 0.000000 10.000000 
BN_Needle 0.000000 0.000000 0.000000 0.000000 0.000000 0.000000 10.000000 
BN_R_Leg_Front02 0.000000 0.000000 0.000000 0.000000 0.000000 0.000000 10.000000 
BN_R_Leg_Front03 0.000000 0.000000 0.000000 0.000000 0.000000 0.000000 10.000000 
BN_R_Leg_Rear02 0.000000 0.000000 0.000000 0.000000 0.000000 0.000000 10.000000 
BN_R_Leg_Rear03 0.000000 0.000000 0.000000 0.000000 0.000000 0.000000 10.000000 
BN_SackDef01 0.000000 0.000000 0.000000 0.000000 0.000000 0.000000 10.000000 
BN_SackDef02 0.000000 0.000000 0.000000 0.000000 0.000000 0.000000 10.000000 
BN_SackDef03 0.000000 0.000000 0.000000 0.000000 0.000000 0.000000 10.000000 
BN_SackDef04 0.000000 0.000000 0.000000 0.000000 0.000000 0.000000 10.000000 
BN_SackDef05 0.000000 0.000000 0.000000 0.000000 0.000000 0.000000 10.000000 
BN_SackDef06 0.000000 0.000000 0.000000 0.000000 0.000000 0.000000 10.000000 
#Beginning of Data. Separated by tabs
#Fr	Tx	Ty	Tz	Rx	Ry	Rz	SF
[BN_Tick_Root]
48 95.968765 550.454712 -0.000035 0.000000 -0.000000 15.949501 558.757935
49 95.968765 550.454712 -0.000035 0.000000 -0.000000 15.949497 558.757935
50 95.968758 550.454712 -0.000035 0.000000 -0.000000 15.949497 558.757935
51 95.968758 550.454712 -0.000035 0.000000 -0.000000 15.949497 558.757935
[BN_Torso]
48 0.988643 -0.283236 168.165634 0.001656 0.001706 -0.873732 168.168777
49 0.988658 -0.283225 168.165787 0.001647 0.001672 -0.873733 168.168930
50 0.988654 -0.283209 168.165787 0.001647 0.001672 -0.873733 168.168930
51 0.988650 -0.283192 168.165787 0.001647 0.001672 -0.873733 168.168930
[BN_L_Leg_Front01]
48 -68.477791 10.734189 -26.804373 -53.586628 37.160042 123.751228 74.316254
49 -68.477791 10.734189 -26.804373 -53.586601 37.160027 123.751251 74.316254
50 -68.477791 10.734189 -26.804373 -53.586601 37.160027 123.751244 74.316254
51 -68.477791 10.734189 -26.804373 -53.586601 37.160027 123.751244 74.316254
[BN_L_Leg_Rear01]
48 -72.133743 -73.994843 -18.268616 65.870346 36.467983 -165.214127 104.939293
49 -72.133743 -73.994843 -18.268616 65.870323 36.467968 -165.214142 104.939293
50 -72.133743 -73.994843 -18.268616 65.870316 36.467964 -165.214142 104.939293
51 -72.133743 -73.994843 -18.268616 65.870316 36.467964 -165.214142 104.939293
[BN_MetalTop]
48 0.000008 13.737477 26.403606 89.998573 -12.929121 -90.001572 29.763546
49 0.000008 13.737477 26.403606 89.998573 -12.929121 -90.001572 29.763546
50 0.000008 13.737477 26.403606 89.998573 -12.929121 -90.001572 29.763546
51 0.000008 13.737477 26.403606 97.944191 -24.620396 -92.626434 29.763546
[BN_Neck]
48 0.000014 95.233284 10.002091 -89.469971 -81.201653 85.680527 95.757088
49 0.000014 95.233284 10.002091 -67.320976 -80.133102 62.017654 95.757088
50 0.000014 95.233284 10.002091 -86.347763 -81.390266 79.252014 95.757088
51 0.000014 95.233284 10.002091 -108.633896 -81.583984 99.747536 95.757088
[BN_R_Leg_Front01]
48 68.477768 10.734107 -26.804314 52.182842 42.667969 34.394871 74.316193
49 68.477768 10.734107 -26.804314 52.182858 42.668015 34.394886 74.316193
50 68.477768 10.734107 -26.804314 52.182858 42.668007 34.394886 74.316193
51 68.477768 10.734107 -26.804314 52.182873 42.668022 34.394894 74.316193
[BN_R_Leg_Rear01]
48 72.133751 -73.994873 -18.268644 -65.274475 40.575115 -65.663292 104.939331
49 72.133751 -73.994873 -18.268644 -65.274498 40.575161 -65.663322 104.939331
50 72.133751 -73.994873 -18.268644 -65.274498 40.575161 -65.663322 104.939331
51 72.133751 -73.994873 -18.268644 -65.274506 40.575165 -65.663330 104.939331
[BN_Sack]
48 -0.000000 -78.024918 33.657791 90.718857 -3.317468 -88.450630 84.974907
49 -0.000000 -78.024918 33.657791 89.636589 -7.299470 -89.228127 84.974907
50 -0.000000 -78.024918 33.657791 88.905785 -10.297142 -89.841095 84.974907
51 -0.000000 -78.024918 33.657791 88.584389 -11.779218 -90.199402 84.974907
[BN_L_Leg_Front02]
48 142.805023 -0.000015 -0.000104 0.199141 0.180557 -81.579781 142.805023
49 142.805023 -0.000015 -0.000104 0.198767 0.180234 -81.579758 142.805023
50 142.805023 -0.000015 -0.000104 0.198393 0.179911 -81.579750 142.805023
51 142.805023 -0.000015 -0.000104 0.198018 0.179587 -81.579750 142.805023
[BN_L_Leg_Front03]
48 124.143021 -0.000045 0.000007 0.355413 -0.447479 86.497581 124.143021
49 124.143021 -0.000045 0.000007 0.355413 -0.447479 86.497551 124.143021
50 124.143021 -0.000045 0.000007 0.355413 -0.447479 86.497543 124.143021
51 124.143021 -0.000045 0.000007 0.355413 -0.447479 86.497551 124.143021
[BN_L_Leg_Rear02]
48 139.939041 0.000075 -0.000022 0.144156 -0.188829 74.709335 139.939041
49 139.939041 0.000075 -0.000022 0.144156 -0.188829 74.709305 139.939041
50 139.939041 0.000075 -0.000022 0.144156 -0.188829 74.709305 139.939041
51 139.939041 0.000075 -0.000022 0.144156 -0.188829 74.709312 139.939041
[BN_L_Leg_Rear03]
48 142.839615 0.000179 -0.000060 0.000047 0.002347 -87.714569 142.839615
49 142.839615 0.000179 -0.000060 0.000047 0.002347 -87.714523 142.839615
50 142.839615 0.000179 -0.000060 0.000047 0.002347 -87.714523 142.839615
51 142.839615 0.000179 -0.000060 0.000047 0.002347 -87.714523 142.839615
[BN_Head]
48 57.062447 -0.000030 0.000000 -3.718955 0.650938 -15.538035 57.062447
49 57.062447 -0.000030 0.000000 -4.939847 4.577994 -15.855370 57.062447
50 57.062447 -0.000030 0.000000 -6.820661 1.181900 -15.919007 57.062447
51 57.062447 -0.000030 0.000000 -8.698733 -2.214617 -15.871145 57.062447
[BN_Needle]
48 33.915283 69.677704 -0.000028 0.000003 0.000030 87.896805 77.493408
49 33.915283 69.677704 -0.000028 0.000003 0.000030 87.896805 77.493408
50 33.915283 69.677704 -0.000027 0.000003 0.000030 87.896805 77.493408
51 33.915283 69.677696 -0.000027 0.000003 0.000030 87.896805 77.493401
[BN_R_Leg_Front02]
48 142.804947 -0.000060 0.000060 0.847495 -4.824488 111.200310 142.804947
49 142.804947 -0.000060 0.000060 -0.125916 0.493088 111.192390 142.804947
50 142.804947 -0.000060 0.000060 -0.126063 0.492502 111.192390 142.804947
51 142.804947 -0.000060 0.000060 -0.126192 0.491815 111.192398 142.804947
[BN_R_Leg_Front03]
48 124.143005 -0.000060 -0.000156 -0.352587 -0.386568 -120.005783 124.143005
49 124.143005 -0.000060 -0.000156 -0.352587 -0.386568 -120.005745 124.143005
50 124.143005 -0.000060 -0.000156 -0.352587 -0.386568 -120.005745 124.143005
51 124.143005 -0.000060 -0.000156 -0.352587 -0.386568 -120.005745 124.143005
[BN_R_Leg_Rear02]
48 139.939011 -0.000149 0.000015 -0.093558 -0.239868 -93.777802 139.939011
49 139.939011 -0.000149 0.000015 -0.092657 -0.238248 -93.777779 139.939011
50 139.939011 -0.000149 0.000015 -0.091757 -0.236628 -93.777794 139.939011
51 139.939011 -0.000149 0.000015 -0.090856 -0.235008 -93.777794 139.939011
[BN_R_Leg_Rear03]
48 142.839417 0.000075 0.000119 0.002303 -0.000454 112.281151 142.839417
49 142.839417 0.000075 0.000119 0.002303 -0.000454 112.281128 142.839417
50 142.839417 0.000075 0.000119 0.002303 -0.000454 112.281120 142.839417
51 142.839417 0.000075 0.000119 0.002303 -0.000454 112.281120 142.839417
[BN_SackDef01]
48 249.782272 -3.760844 42.949425 -128.408218 -44.374973 -11.740845 253.475800
49 249.782272 -3.760844 42.949425 -128.408218 -44.374973 -11.740845 253.475800
50 249.782272 -3.760844 42.949425 -128.408218 -44.374973 -11.740845 253.475800
51 249.782272 -3.760844 42.949425 -128.408218 -44.374973 -11.740845 253.475800
[BN_SackDef02]
48 138.789795 -62.131748 45.674385 32.077126 -27.375721 -88.781525 158.773758
49 138.789795 -62.131748 45.674385 32.077126 -27.375721 -88.781525 158.773758
50 138.789795 -62.131748 45.674385 32.077126 -27.375721 -88.781525 158.773758
51 138.789795 -62.131748 45.674385 32.077126 -27.375721 -88.781525 158.773758
[BN_SackDef03]
48 249.782272 -3.760785 -42.949661 18.144459 44.375008 -11.740894 253.475845
49 249.782272 -3.760785 -42.949661 18.144459 44.375008 -11.740894 253.475845
50 249.782272 -3.760785 -42.949661 18.144459 44.375008 -11.740894 253.475845
51 249.782272 -3.760785 -42.949661 18.144459 44.375008 -11.740894 253.475845
[BN_SackDef04]
48 138.789780 -62.131645 -45.674473 146.059982 27.375723 -88.781555 158.773743
49 138.789780 -62.131645 -45.674473 146.059982 27.375723 -88.781555 158.773743
50 138.789780 -62.131645 -45.674473 146.059982 27.375723 -88.781555 158.773743
51 138.789780 -62.131645 -45.674473 146.059982 27.375723 -88.781555 158.773743
[BN_SackDef05]
48 118.790161 46.167137 -63.831196 0.155741 51.314110 90.605110 142.537460
49 118.790161 46.167137 -63.831196 0.155741 51.314110 90.605110 142.537460
50 118.790161 46.167137 -63.831196 0.155741 51.314110 90.605110 142.537460
51 118.790161 46.167137 -63.831196 0.155741 51.314110 90.605110 142.537460
[BN_SackDef06]
48 118.790207 46.167194 63.831219 152.058487 -51.314072 90.605019 142.537537
49 118.790207 46.167194 63.831219 152.058487 -51.314072 90.605019 142.537537
50 118.790207 46.167194 63.831219 152.058487 -51.314072 90.605019 142.537537
51 118.790207 46.167194 63.831219 152.058487 -51.314072 90.605019 142.537537
